<svg width="25" height="25" viewBox="0 0 25 25" fill="none" xmlns="http://www.w3.org/2000/svg">
<g clip-path="url(#clip0_187_2027)">
<path d="M24.6944 23.2225L18.4767 17.0048C20.1711 14.9325 21.0042 12.2882 20.8037 9.61892C20.6031 6.94962 19.3843 4.45951 17.3992 2.66367C15.4142 0.867826 12.8149 -0.0963599 10.1389 -0.0294517C7.46287 0.0374564 4.91497 1.13034 3.02216 3.02314C1.12936 4.91594 0.0364799 7.46385 -0.0304283 10.1398C-0.0973364 12.8158 0.866849 15.4152 2.66269 17.4002C4.45854 19.3852 6.94864 20.6041 9.61794 20.8046C12.2872 21.0052 14.9315 20.1721 17.0038 18.4777L23.2215 24.6954C23.418 24.8852 23.6811 24.9902 23.9542 24.9878C24.2274 24.9854 24.4886 24.8759 24.6818 24.6827C24.8749 24.4896 24.9844 24.2283 24.9868 23.9552C24.9892 23.6821 24.8842 23.419 24.6944 23.2225ZM10.4163 18.7506C8.76814 18.7506 7.15698 18.2619 5.78657 17.3462C4.41616 16.4305 3.34805 15.129 2.71732 13.6063C2.08659 12.0836 1.92156 10.4081 2.24311 8.79154C2.56465 7.17503 3.35832 5.69018 4.52376 4.52474C5.6892 3.3593 7.17406 2.56563 8.79057 2.24408C10.4071 1.92254 12.0826 2.08757 13.6053 2.7183C15.1281 3.34903 16.4296 4.41713 17.3452 5.78754C18.2609 7.15795 18.7497 8.76912 18.7497 10.4173C18.7472 12.6267 17.8684 14.7448 16.3061 16.3071C14.7439 17.8694 12.6257 18.7481 10.4163 18.7506Z" fill="#454444"/>
</g>
<defs>
<clipPath id="clip0_187_2027">
<rect width="25" height="25" fill="white"/>
</clipPath>
</defs>
</svg>
